<?xml version="1.0" encoding="UTF-8"?>
<svg id="Layer_1" data-name="Layer 1" xmlns="http://www.w3.org/2000/svg" viewBox="0 0 594 144">
  <defs>
    <style>
      .cls-1 {
        fill: #2dc0d1;
      }
    </style>
  </defs>
  <g>
    <path d="M163.27,0h17.19c19.52,0,31.27,11.85,31.27,31.36,0,10.97-3.59,20-10.2,25.93-5.63,5.05-13.11,7.48-22.53,7.48h-15.73V0ZM171.42,57.78h2.91c10.97,0,15.63-1.17,20.29-4.86,5.83-4.66,8.74-11.85,8.74-21.46,0-15.63-8.35-24.57-23.21-24.57h-8.74v50.88Z"/>
    <path d="M225.9,20v7.57c1.36-3.2,2.33-4.56,4.08-5.92,2.23-1.75,5.34-2.72,8.55-2.72h1.75v7.48c-.78-.1-1.55-.1-2.04-.1-3.98,0-7.48,1.85-9.71,5.15-1.94,2.82-2.62,5.44-2.62,10.59v22.72h-7.38V20h7.38Z"/>
    <path d="M276.78,20h7.38v44.77h-7.38v-8.64c-4.47,6.7-9.52,9.71-16.31,9.71-12.33,0-21.07-9.71-21.07-23.3s8.93-23.6,21.27-23.6c6.8,0,11.75,2.62,16.12,8.45v-7.38ZM250.85,30.88c-2.33,3.2-3.69,7.48-3.69,11.85,0,9.52,6.21,16.7,14.37,16.7s15.34-7.87,15.34-17.48-6.21-16.41-15.15-16.41c-4.85,0-8.25,1.65-10.88,5.34Z"/>
    <path d="M302.7,60.59c0,2.82-2.23,4.95-5.05,4.95s-5.05-2.14-5.05-5.05,2.14-5.05,5.05-5.05,5.05,2.14,5.05,5.15Z"/>
    <path d="M337.47,53.6l-3.88,11.17h-14.08L341.84,0h16.61l22.14,64.77h-14.57l-3.69-11.17h-24.86ZM349.9,15.93l-9.03,26.8h17.96l-8.93-26.8Z"/>
    <path d="M391.84,19.81v5.53c3.3-5.15,6.6-7.09,12.23-7.09,4.27,0,8.35,1.55,11.07,4.18,2.91,2.91,3.98,6.51,3.98,13.89v28.45h-12.33v-27.87c0-2.53-.29-3.98-1.07-5.24-1.17-1.85-3.5-3.01-5.92-3.01-4.76,0-7.96,3.59-7.96,8.84v27.29h-12.33V19.81h12.33Z"/>
    <path d="M458.26,0h12.33v64.77h-12.33v-5.92c-3.88,5.34-8.16,7.48-15.05,7.48-13.3,0-22.24-9.52-22.24-23.6,0-7.57,2.52-13.89,7.19-18.26,4.27-3.98,9.71-6.21,15.25-6.21,6.12,0,10.49,1.94,14.86,6.5V0ZM434.08,42.82c0,7.77,5.15,13.59,12.14,13.59s12.04-5.92,12.04-13.69c0-8.16-5.05-14.08-11.94-14.08s-12.23,5.92-12.23,14.18Z"/>
    <path d="M487.77,19.81v6.6c1.26-3.3,2.14-4.66,3.98-6.02,1.94-1.36,4.56-2.14,7.28-2.14.29,0,.78,0,1.46.1v12.62c-.97-.1-1.94-.19-2.62-.19-3.4,0-6.51,1.55-8.25,4.08-1.46,2.04-1.85,3.98-1.85,8.25v21.65h-12.33V19.81h12.33Z"/>
    <path d="M510.4,45.25c1.07,6.21,5.63,10.1,11.75,10.1,4.56,0,8.45-2.23,10.39-5.83l11.36,3.11c-4.47,8.74-12.33,13.69-21.85,13.69-14.27,0-24.47-10.1-24.47-24.08s9.81-23.98,23.69-23.98,24.37,10.1,24.37,24.57l-.1,2.43h-35.15ZM532.93,38.16c-1.07-5.92-5.34-9.52-11.46-9.52s-9.9,3.4-11.07,9.52h22.53Z"/>
    <path d="M581.67,19.81h12.33v44.96h-12.33v-6.21c-4.18,5.34-9.03,7.77-15.63,7.77-12.62,0-21.65-9.81-21.65-23.5s9.52-24.57,22.62-24.57c6.12,0,10.29,2.14,14.66,7.28v-5.73ZM557.59,42.63c0,7.86,5.15,13.79,11.85,13.79s12.43-6.41,12.43-14.18-5.05-13.59-12.33-13.59-11.94,5.73-11.94,13.98Z"/>
    <path d="M175.31,142.45h-13.3v-64.77h20c16.02,0,24.66,7.09,24.66,20.39,0,10.2-5.34,16.99-15.34,19.52l17.87,24.86h-16.12l-17.77-25.73v25.73ZM181.33,108.95c7.57,0,11.85-3.69,11.85-10.2s-4.08-10.1-10.68-10.1h-7.19v20.29h6.02Z"/>
    <path d="M223.76,84.77c0,3.79-2.91,6.7-6.8,6.7s-6.89-2.91-6.89-6.8,2.91-6.89,6.89-6.89,6.8,2.91,6.8,6.99ZM223.08,142.45h-12.33v-44.96h12.33v44.96Z"/>
    <path d="M267.07,97.49l-16.41,44.96h-12.72l-16.22-44.96h12.82l9.9,26.8,10-26.8h12.62Z"/>
    <path d="M299.3,97.49h12.33v44.96h-12.33v-6.21c-4.18,5.34-9.03,7.77-15.63,7.77-12.62,0-21.65-9.81-21.65-23.5s9.52-24.57,22.62-24.57c6.12,0,10.29,2.14,14.66,7.28v-5.73ZM275.22,120.31c0,7.86,5.15,13.79,11.85,13.79s12.43-6.41,12.43-14.18-5.05-13.59-12.33-13.59-11.94,5.73-11.94,13.98Z"/>
    <path d="M336.2,110.5v-.78c0-2.72-2.43-4.66-5.73-4.66-3.01,0-4.95,1.65-4.95,4.08,0,1.17.49,2.33,1.26,2.91,1.36,1.07,1.46,1.07,7.67,3.01,10.1,3.11,14.08,7.09,14.08,14.37,0,8.74-6.99,14.56-17.48,14.56s-17.19-5.44-17.67-14.76h11.85c.58,3.88,2.33,5.63,5.92,5.63,2.91,0,4.95-1.75,4.95-4.27,0-2.72-1.75-3.98-8.35-6.02-9.71-2.91-14.08-7.28-14.08-14.37,0-8.54,6.89-14.27,17.38-14.27s16.51,5.44,16.8,14.56h-11.65Z"/>
  </g>
  <g>
    <path class="cls-1" d="M33.69,0h-9.69C10.8,0,0,10.8,0,24v9.69l50.27,16.58L33.69,0Z"/>
    <polygon class="cls-1" points="144 76.45 144 66.55 128.2 71.5 144 76.45"/>
    <polygon class="cls-1" points="71.5 15.8 76.45 0 66.55 0 71.5 15.8"/>
    <path class="cls-1" d="M144,33.69v-9.69c0-13.2-10.8-24-24-24h-9.57l-16.48,50.2,50.05-16.51Z"/>
    <polygon class="cls-1" points="15.8 71.5 0 66.55 0 76.45 15.8 71.5"/>
    <path class="cls-1" d="M110.43,144h9.57c13.2,0,24-10.8,24-24v-9.57l-49.98-16.41,16.41,49.98Z"/>
    <polygon class="cls-1" points="71.5 128.2 66.55 144 76.45 144 71.5 128.2"/>
    <path class="cls-1" d="M0,110.43v9.57c0,13.2,10.8,24,24,24h9.69l16.51-50.05L0,110.43Z"/>
    <rect class="cls-1" x="54" y="54" width="36" height="36"/>
  </g>
</svg>